# xmcd
# 
# Track frame offsets:
#     150
#     17049
#     31217
#     51447
# 
# Disc length: 936
# 
# Revision: 0
# Processed by: cddbd v1.5.2PL0 Copyright (c) Steve Scherf et al.
# Submitted via: fre:ac v1.0.17
# 
DISCID=2b03a604
DTITLE=ROTTENGRAFFTY - D.A.N.C.E.
DYEAR=2012
DGENRE=
TTITLE0=D.A.N.C.E.
TTITLE1=灯
TTITLE2=Familiarize (Acoustic Ver.)
TTITLE3=This World (LIVE at 2012.4.30 NAGOYA Electric Lady Land)
EXTD=
EXTT0=
EXTT1=
EXTT2=
EXTT3=
PLAYORDER=
